<svg xmlns="http://www.w3.org/2000/svg" xmlns:xlink="http://www.w3.org/1999/xlink" fill="none" version="1.1" width="135" height="38" viewBox="0 0 135 38"><g><g><rect x="0" y="0" width="38" height="38" rx="19" fill="#1E99F5" fill-opacity="1"/><g><path d="M16.988,28.5L14.828,28.5L14.828,11.364L24.404,11.364L24.404,13.26L16.988,13.26L16.988,19.332L23.948,19.332L23.948,21.228L16.988,21.228L16.988,28.5Z" fill="#000000" fill-opacity="1"/></g></g><g><path d="M45.26709,26L45.26709,11.454550000000001L54.891999999999996,11.454550000000001L54.891999999999996,13.988610000000001L48.34093,13.988610000000001L48.34093,17.4545L54.2557,17.4545L54.2557,19.988599999999998L48.34093,19.988599999999998L48.34093,26L45.26709,26ZM63.902,21.3522L63.902,15.09091L66.9247,15.09091L66.9247,26L64.0213,26L64.0213,24.017L63.9077,24.017Q63.5412,24.9758,62.6846,25.559Q61.8281,26.142,60.600899999999996,26.142Q59.5057,26.142,58.674,25.6463Q57.8423,25.1506,57.3771,24.2315Q56.9119,23.3125,56.9077,22.0398L56.9077,15.09091L59.9304,15.09091L59.9304,21.5Q59.9346,22.4631,60.4481,23.0241Q60.9617,23.5852,61.822500000000005,23.5852Q62.3665,23.5852,62.8416,23.3317Q63.3167,23.0781,63.6115,22.581699999999998Q63.9062,22.0852,63.902,21.3522ZM69.3438,26L69.3438,15.09091L72.2756,15.09091L72.2756,16.994320000000002L72.3892,16.994320000000002Q72.6875,15.98014,73.3899,15.4589Q74.0923,14.93754,75.0085,14.93754Q75.2358,14.93754,75.4978,14.963840000000001Q75.7599,14.99003,75.9573,15.03831L75.9573,17.7273Q75.7486,17.659,75.37219999999999,17.610799999999998Q74.9958,17.5625,74.6789,17.5625Q74.0156,17.5625,73.4922,17.850099999999998Q72.9687,18.1378,72.6675,18.6485Q72.3665,19.159100000000002,72.3665,19.8296L72.3665,26L69.3438,26ZM80.5412,19.693199999999997L80.5412,26L77.5185,26L77.5185,15.09091L80.3991,15.09091L80.3991,17.0171L80.5241,17.0171Q80.8906,16.06248,81.7421,15.50573Q82.5938,14.94886,83.8082,14.94886Q84.946,14.94886,85.7919,15.4468Q86.6378,15.94462,87.1058,16.8637Q87.57390000000001,17.7827,87.5697,19.051099999999998L87.5697,26L84.5469,26L84.5469,19.590899999999998Q84.55109999999999,18.590899999999998,84.0347,18.0256Q83.5185,17.4602,82.6094,17.4602Q81.99860000000001,17.4602,81.532,17.7252Q81.06530000000001,17.990099999999998,80.8053,18.4893Q80.5454,18.988599999999998,80.5412,19.693199999999997ZM89.9546,26L89.9546,15.09091L92.9773,15.09091L92.9773,26L89.9546,26ZM91.47370000000001,13.68177Q90.7983,13.68177,90.3167,13.23278Q89.8352,12.78378,89.8352,12.15323Q89.8352,11.522680000000001,90.31739999999999,11.07391Q90.7995,10.62502,91.4716,10.62502Q92.14920000000001,10.62502,92.6286,11.07402Q93.108,11.523019999999999,93.108,12.153559999999999Q93.108,12.78411,92.6286,13.233Q92.14920000000001,13.68177,91.47370000000001,13.68177Z" fill="#FFFFFF" fill-opacity="1"/><path d="M95.45179999999999,26L95.45179999999999,11.454550000000001L105.0767,11.454550000000001L105.0767,13.988610000000001L98.5256,13.988610000000001L98.5256,17.4545L104.44030000000001,17.4545L104.44030000000001,19.988599999999998L98.5256,19.988599999999998L98.5256,26L95.45179999999999,26ZM110.1151,11.454550000000001L110.1151,26L107.0924,26L107.0924,11.454550000000001L110.1151,11.454550000000001ZM117.4985,26.2102Q115.8196,26.2102,114.6072,25.5277Q113.3949,24.8452,112.7421,23.5846Q112.0895,22.323900000000002,112.0895,20.596600000000002Q112.0895,18.9119,112.7443,17.6406Q113.3992,16.369320000000002,114.5866,15.65909Q115.7741,14.94886,117.3792,14.94886Q118.4617,14.94886,119.3949,15.29266Q120.3281,15.63634,121.0269,16.32748Q121.7258,17.0185,122.1179,18.0583Q122.51,19.098,122.51,20.488599999999998L122.51,21.318199999999997L113.2998,21.318199999999997L113.2998,19.443199999999997L119.6634,19.443199999999997Q119.6591,18.7926,119.3742,18.2877Q119.0894,17.7827,118.5887,17.4936Q118.088,17.2045,117.4304,17.2045Q116.7444,17.2045,116.2145,17.523400000000002Q115.6847,17.842399999999998,115.3856,18.3708Q115.0867,18.8992,115.0781,19.5455L115.0781,21.3296Q115.0781,22.139200000000002,115.3821,22.7287Q115.6861,23.3182,116.2401,23.6364Q116.7941,23.9545,117.5497,23.9545Q118.0568,23.9545,118.4737,23.8111Q118.8906,23.6676,119.1918,23.3857Q119.493,23.1037,119.6463,22.693199999999997L122.4417,22.875Q122.2287,23.8864,121.5738,24.6357Q120.9191,25.385,119.8842,25.7976Q118.8494,26.2102,117.4985,26.2102ZM127.0143,15.09091L129.01420000000002,18.903399999999998L131.06529999999998,15.09091L134.17329999999998,15.09091L131.0085,20.5455L134.2586,26L131.1676,26L129.01420000000002,22.2273L126.8948,26L123.7698,26L127.0143,20.5455L123.8893,15.09091L127.0143,15.09091Z" fill="#1E99F5" fill-opacity="1"/></g></g></svg>